<?xml version="1.0" encoding="UTF-8" standalone="no"?>
<!DOCTYPE svg PUBLIC "-//W3C//DTD SVG 1.0//EN"
 "http://www.w3.org/TR/2001/REC-SVG-20010904/DTD/svg10.dtd" [
 <!ATTLIST svg xmlns:xlink CDATA #FIXED "http://www.w3.org/1999/xlink">
]>
<!-- Generated by dot version 1.10 (Tue Dec 9 20:37:01 UTC+0200 2003)
     For user: Bill Gates   Title: G    Pages: 1 -->
<svg width="1194px" height="373px"
 viewBox = "-1 -1 895 279"
 xmlns="http://www.w3.org/2000/svg" xmlns:xlink="http://www.w3.org/1999/xlink">
<g id="graph0" class="graph" style="font-family:Times-Roman;font-size:14.00;">
<title>G</title>
<g id="node1" class="node"><title>2</title>
<a xlink:href="file://C:\UsersGreywind\Documents\My Workspace\earlgrey\trunk\src\Earlgrey.Test\Earlgrey.Test.vcproj" xlink:title="Earlgrey.Test">
<polygon style="fill:none;stroke:black;" points="310,12 206,12 206,48 310,48 310,12"/>
<text text-anchor="middle" x="258" y="35">Earlgrey.Test</text>
</a></g>
<g id="node3" class="node"><title>4</title>
<a xlink:href="file://C:\UsersGreywind\Documents\My Workspace\earlgrey\trunk\vendor\gtest-1.3.0\msvc\gtest.vcproj" xlink:title="gtest">
<polygon style="fill:none;stroke:black;" points="223,84 169,84 169,120 223,120 223,84"/>
<text text-anchor="middle" x="196" y="107">gtest</text>
</a></g>
<g id="edge8" class="edge"><title>2-&gt;4</title>
<path style="fill:none;stroke:black;" d="M242,48C235,57 226,67 218,76"/>
<polygon style="fill:black;stroke:black;" points="220,79 211,84 215,74 220,79"/>
</g>
<g id="node9" class="node"><title>1</title>
<a xlink:href="file://C:\UsersGreywind\Documents\My Workspace\earlgrey\trunk\vendor\StackWalker_2009-11-01\StackWalker\StackWalker_VC9.vcproj" xlink:title="StackWalker_VC9">
<polygon style="fill:none;stroke:black;" points="367,228 223,228 223,264 367,264 367,228"/>
<text text-anchor="middle" x="295" y="251">StackWalker_VC9</text>
</a></g>
<g id="edge4" class="edge"><title>2-&gt;1</title>
<path style="fill:none;stroke:black;" d="M261,48C267,86 283,173 290,218"/>
<polygon style="fill:black;stroke:black;" points="293,218 292,228 287,219 293,218"/>
</g>
<g id="node12" class="node"><title>3</title>
<a xlink:href="file://C:\UsersGreywind\Documents\My Workspace\earlgrey\trunk\srcGmailClientGmailClient.vcproj" xlink:title="GmailClient">
<polygon style="fill:none;stroke:black;" points="413,84 317,84 317,120 413,120 413,84"/>
<text text-anchor="middle" x="365" y="107">GmailClient</text>
</a></g>
<g id="edge2" class="edge"><title>2-&gt;3</title>
<path style="fill:none;stroke:black;" d="M285,48C299,57 315,68 329,78"/>
<polygon style="fill:black;stroke:black;" points="332,76 338,84 328,81 332,76"/>
</g>
<g id="node14" class="node"><title>0</title>
<a xlink:href="file://C:\UsersGreywind\Documents\My Workspace\earlgrey\trunk\src\Earlgrey\Earlgrey.vcproj" xlink:title="Earlgrey">
<polygon style="fill:none;stroke:black;" points="376,156 304,156 304,192 376,192 376,156"/>
<text text-anchor="middle" x="340" y="179">Earlgrey</text>
</a></g>
<g id="edge6" class="edge"><title>2-&gt;0</title>
<path style="fill:none;stroke:black;" d="M268,48C278,67 294,96 308,120 312,129 318,139 323,148"/>
<polygon style="fill:black;stroke:black;" points="326,146 329,156 320,150 326,146"/>
</g>
<g id="node2" class="node"><title>11</title>
<ellipse cx="611" cy="102" rx="70" ry="18" style="fill:none;stroke:black;"/>
<text text-anchor="middle" x="611" y="107">nunit.framework</text>
</g>
<g id="node4" class="node"><title>6</title>
<a xlink:href="file://C:\UsersGreywind\Documents\My Workspace\earlgrey\trunk\src\ServerClientTestApp\Server\Server.vcproj" xlink:title="Server">
<polygon style="fill:none;stroke:black;" points="452,12 394,12 394,48 452,48 452,12"/>
<text text-anchor="middle" x="423" y="35">Server</text>
</a></g>
<g id="edge10" class="edge"><title>6-&gt;3</title>
<path style="fill:none;stroke:black;" d="M408,48C401,57 393,67 385,76"/>
<polygon style="fill:black;stroke:black;" points="388,78 379,84 382,74 388,78"/>
</g>
<g id="edge12" class="edge"><title>6-&gt;0</title>
<path style="fill:none;stroke:black;" d="M452,44C468,53 485,67 494,84 501,99 502,107 494,120 465,165 437,160 386,171"/>
<polygon style="fill:black;stroke:black;" points="386,174 376,173 385,168 386,174"/>
</g>
<g id="node5" class="node"><title>13</title>
<a xlink:href="file://C:\UsersGreywind\Documents\My Workspace\earlgrey\trunk\src\Earlgrey.Database.Test\Earlgrey.Database.Test.vcproj" xlink:title="Earlgrey.Database.Test">
<polygon style="fill:none;stroke:black;" points="173,12 5,12 5,48 173,48 173,12"/>
<text text-anchor="middle" x="89" y="35">Earlgrey.Database.Test</text>
</a></g>
<g id="edge16" class="edge"><title>13-&gt;4</title>
<path style="fill:none;stroke:black;" d="M116,48C130,57 146,68 160,78"/>
<polygon style="fill:black;stroke:black;" points="163,76 169,84 159,81 163,76"/>
</g>
<g id="node7" class="node"><title>12</title>
<a xlink:href="file://C:\UsersGreywind\Documents\My Workspace\earlgrey\trunk\src\Earlgrey.Database\Earlgrey.Database.vcproj" xlink:title="Earlgrey.Database">
<polygon style="fill:none;stroke:black;" points="151,84 13,84 13,120 151,120 151,84"/>
<text text-anchor="middle" x="82" y="107">Earlgrey.Database</text>
</a></g>
<g id="edge14" class="edge"><title>13-&gt;12</title>
<path style="fill:none;stroke:black;" d="M87,48C86,56 86,65 85,74"/>
<polygon style="fill:black;stroke:black;" points="88,74 84,84 82,74 88,74"/>
</g>
<g id="node6" class="node"><title>10</title>
<a xlink:href="file://C:\UsersGreywind\Documents\My Workspace\earlgrey\trunk\src\TestCommonUnitTest\TestCommonUnitTest.csproj" xlink:title="TestCommonUnitTest">
<polygon style="fill:none;stroke:black;" points="694,12 528,12 528,48 694,48 694,12"/>
<text text-anchor="middle" x="611" y="35">TestCommonUnitTest</text>
</a></g>
<g id="edge18" class="edge"><title>10-&gt;11</title>
<path style="fill:none;stroke:black;" d="M611,48C611,56 611,65 611,74"/>
<polygon style="fill:black;stroke:black;" points="615,74 611,84 608,74 615,74"/>
</g>
<g id="node13" class="node"><title>8</title>
<a xlink:href="file://C:\UsersGreywind\Documents\My Workspace\earlgrey\trunk\src\TestCommon\TestCommon.csproj" xlink:title="TestCommon">
<polygon style="fill:none;stroke:black;" points="805,84 699,84 699,120 805,120 805,84"/>
<text text-anchor="middle" x="752" y="107">TestCommon</text>
</a></g>
<g id="edge20" class="edge"><title>10-&gt;8</title>
<path style="fill:none;stroke:black;" d="M647,48C665,58 688,69 708,79"/>
<polygon style="fill:black;stroke:black;" points="710,76 717,84 707,82 710,76"/>
</g>
<g id="edge22" class="edge"><title>12-&gt;0</title>
<path style="fill:none;stroke:black;" d="M147,120C192,133 253,149 294,161"/>
<polygon style="fill:black;stroke:black;" points="295,158 304,164 293,164 295,158"/>
</g>
<g id="node8" class="node"><title>9</title>
<a xlink:href="file://C:\UsersGreywind\Documents\My Workspace\earlgrey\trunk\src\EchoTest\EchoTest.csproj" xlink:title="EchoTest">
<polygon style="fill:none;stroke:black;" points="789,12 713,12 713,48 789,48 789,12"/>
<text text-anchor="middle" x="751" y="35">EchoTest</text>
</a></g>
<g id="edge24" class="edge"><title>9-&gt;8</title>
<path style="fill:none;stroke:black;" d="M751,48C752,56 752,65 752,74"/>
<polygon style="fill:black;stroke:black;" points="756,74 752,84 749,74 756,74"/>
</g>
<g id="node10" class="node"><title>5</title>
<a xlink:href="file://C:\UsersGreywind\Documents\My Workspace\earlgrey\trunk\src\ServerClientTestApp\Client\Client.vcproj" xlink:title="Client">
<polygon style="fill:none;stroke:black;" points="485,84 431,84 431,120 485,120 485,84"/>
<text text-anchor="middle" x="458" y="107">Client</text>
</a></g>
<g id="edge26" class="edge"><title>5-&gt;0</title>
<path style="fill:none;stroke:black;" d="M431,119C416,128 396,141 379,151"/>
<polygon style="fill:black;stroke:black;" points="380,154 370,156 377,148 380,154"/>
</g>
<g id="node11" class="node"><title>7</title>
<a xlink:href="file://C:\UsersGreywind\Documents\My Workspace\earlgrey\trunk\src\TestClient\TestClient.csproj" xlink:title="TestClient">
<polygon style="fill:none;stroke:black;" points="889,12 807,12 807,48 889,48 889,12"/>
<text text-anchor="middle" x="848" y="35">TestClient</text>
</a></g>
<g id="edge28" class="edge"><title>7-&gt;8</title>
<path style="fill:none;stroke:black;" d="M824,48C812,57 797,68 784,78"/>
<polygon style="fill:black;stroke:black;" points="786,81 776,84 782,75 786,81"/>
</g>
<g id="edge30" class="edge"><title>3-&gt;0</title>
<path style="fill:none;stroke:black;" d="M359,120C356,128 353,138 349,146"/>
<polygon style="fill:black;stroke:black;" points="352,147 346,156 346,145 352,147"/>
</g>
<g id="edge32" class="edge"><title>0-&gt;1</title>
<path style="fill:none;stroke:black;" d="M329,192C324,200 317,210 311,220"/>
<polygon style="fill:black;stroke:black;" points="314,221 306,228 308,218 314,221"/>
</g>
</g>
</svg>
