<?xml version="1.0" encoding="UTF-8" standalone="no"?>
<!DOCTYPE svg PUBLIC "-//W3C//DTD SVG 1.0//EN"
 "http://www.w3.org/TR/2001/REC-SVG-20010904/DTD/svg10.dtd" [
 <!ATTLIST svg xmlns:xlink CDATA #FIXED "http://www.w3.org/1999/xlink">
]>
<!-- Generated by dot version 1.10 (Tue Dec 9 20:37:01 UTC+0200 2003)
     For user: Bill Gates   Title: G    Pages: 1 -->
<svg width="2614px" height="373px"
 viewBox = "-1 -1 1960 279"
 xmlns="http://www.w3.org/2000/svg" xmlns:xlink="http://www.w3.org/1999/xlink">
<g id="graph0" class="graph" style="font-family:Times-Roman;font-size:14.00;">
<title>G</title>
<g id="node1" class="node"><title>20</title>
<ellipse cx="330" cy="174" rx="56" ry="18" style="fill:none;stroke:black;"/>
<text text-anchor="middle" x="330" y="179">Rhino.Mocks</text>
</g>
<g id="node2" class="node"><title>19</title>
<a xlink:href="file://C:\UsersGreywind\Documents\My Workspace\earlgrey\trunk\vendor\BuildTool\MSBuildCommunityTasks\v1.3.0.504\Source\MSBuild.Community.Tasks.Tests\MSBuild.Community.Tasks.Tests.csproj" xlink:title="MSBuild.Community.Tasks.Tests">
<polygon style="fill:none;stroke:black;" points="449,84 211,84 211,120 449,120 449,84"/>
<text text-anchor="middle" x="330" y="107">MSBuild.Community.Tasks.Tests</text>
</a></g>
<g id="edge4" class="edge"><title>19-&gt;20</title>
<path style="fill:none;stroke:black;" d="M330,120C330,128 330,137 330,146"/>
<polygon style="fill:black;stroke:black;" points="334,146 330,156 327,146 334,146"/>
</g>
<g id="node5" class="node"><title>6</title>
<ellipse cx="1438" cy="246" rx="70" ry="18" style="fill:none;stroke:black;"/>
<text text-anchor="middle" x="1438" y="251">nunit.framework</text>
</g>
<g id="edge2" class="edge"><title>19-&gt;6</title>
<path style="fill:none;stroke:black;" d="M352,120C365,130 381,144 395,156 413,172 412,183 433,192 573,257 627,196 776,228 799,233 803,241 826,244 833,246 1194,246 1358,246"/>
<polygon style="fill:black;stroke:black;" points="1358,242 1368,246 1358,249 1358,242"/>
</g>
<g id="node24" class="node"><title>2</title>
<a xlink:href="file://C:\UsersGreywind\Documents\My Workspace\earlgrey\trunk\vendor\BuildTool\MSBuildCommunityTasks\v1.3.0.504\Source\MSBuild.Community.Tasks\MSBuild.Community.Tasks.csproj" xlink:title="MSBuild.Community.Tasks">
<polygon style="fill:none;stroke:black;" points="256,156 54,156 54,192 256,192 256,156"/>
<text text-anchor="middle" x="155" y="179">MSBuild.Community.Tasks</text>
</a></g>
<g id="edge6" class="edge"><title>19-&gt;2</title>
<path style="fill:none;stroke:black;" d="M286,120C262,130 233,142 208,152"/>
<polygon style="fill:black;stroke:black;" points="210,155 199,156 207,149 210,155"/>
</g>
<g id="node3" class="node"><title>18</title>
<ellipse cx="486" cy="174" rx="44" ry="18" style="fill:none;stroke:black;"/>
<text text-anchor="middle" x="486" y="179">nunit.core</text>
</g>
<g id="node4" class="node"><title>16</title>
<a xlink:href="file://C:\UsersGreywind\Documents\My Workspace\earlgrey\trunk\src\BuildTools\MSBuild\MSBuild.Earlgrey.Scripts.Tests\MSBuild.Earlgrey.Scripts.Tests.csproj" xlink:title="MSBuild.Earlgrey.Scripts.Tests">
<polygon style="fill:none;stroke:black;" points="1378,84 1158,84 1158,120 1378,120 1378,84"/>
<text text-anchor="middle" x="1268" y="107">MSBuild.Earlgrey.Scripts.Tests</text>
</a></g>
<g id="edge8" class="edge"><title>16-&gt;6</title>
<path style="fill:none;stroke:black;" d="M1313,120C1341,131 1374,145 1387,156 1405,174 1419,199 1427,219"/>
<polygon style="fill:black;stroke:black;" points="1430,217 1431,228 1424,220 1430,217"/>
</g>
<g id="node10" class="node"><title>5</title>
<a xlink:href="file://C:\UsersGreywind\Documents\My Workspace\earlgrey\trunk\src\BuildTools\SharedLibs\Earlgrey\Earlgrey.csproj" xlink:title="Earlgrey">
<polygon style="fill:none;stroke:black;" points="1506,156 1434,156 1434,192 1506,192 1506,156"/>
<text text-anchor="middle" x="1470" y="179">Earlgrey</text>
</a></g>
<g id="edge10" class="edge"><title>16-&gt;5</title>
<path style="fill:none;stroke:black;" d="M1319,120C1348,130 1386,144 1420,156 1421,157 1423,157 1424,158"/>
<polygon style="fill:black;stroke:black;" points="1425,155 1434,161 1423,161 1425,155"/>
</g>
<g id="node11" class="node"><title>9</title>
<a xlink:href="file://C:\UsersGreywind\Documents\My Workspace\earlgrey\trunk\src\BuildTools\MSBuild\MSBuild.Earlgrey.TestSupport\MSBuild.Earlgrey.TestSupport.csproj" xlink:title="MSBuild.Earlgrey.TestSupport">
<polygon style="fill:none;stroke:black;" points="1176,156 954,156 954,192 1176,192 1176,156"/>
<text text-anchor="middle" x="1065" y="179">MSBuild.Earlgrey.TestSupport</text>
</a></g>
<g id="edge14" class="edge"><title>16-&gt;9</title>
<path style="fill:none;stroke:black;" d="M1217,120C1189,130 1155,142 1126,153"/>
<polygon style="fill:black;stroke:black;" points="1127,156 1116,156 1125,150 1127,156"/>
</g>
<g id="node14" class="node"><title>15</title>
<a xlink:href="file://C:\UsersGreywind\Documents\My Workspace\earlgrey\trunk\src\BuildTools\MSBuild\MSBuild.Earlgrey.Scripts\MSBuild.Earlgrey.Scripts.csproj" xlink:title="MSBuild.Earlgrey.Scripts">
<polygon style="fill:none;stroke:black;" points="1378,156 1194,156 1194,192 1378,192 1378,156"/>
<text text-anchor="middle" x="1286" y="179">MSBuild.Earlgrey.Scripts</text>
</a></g>
<g id="edge12" class="edge"><title>16-&gt;15</title>
<path style="fill:none;stroke:black;" d="M1273,120C1275,128 1277,137 1279,146"/>
<polygon style="fill:black;stroke:black;" points="1282,145 1282,156 1276,147 1282,145"/>
</g>
<g id="node6" class="node"><title>0</title>
<a xlink:href="file://C:\UsersGreywind\Documents\My Workspace\earlgrey\trunk\src\BuildTools\MSBuild\MSBuild.Earlgrey.Tasks\MSBuild.Earlgrey.Tasks.csproj" xlink:title="MSBuild.Earlgrey.Tasks">
<polygon style="fill:none;stroke:black;" points="896,84 718,84 718,120 896,120 896,84"/>
<text text-anchor="middle" x="807" y="107">MSBuild.Earlgrey.Tasks</text>
</a></g>
<g id="node8" class="node"><title>7</title>
<a xlink:href="file://C:\UsersGreywind\Documents\My Workspace\earlgrey\trunk\src\BuildTools\SharedLibs\IniParser\IniFileParser\INIFileParser.csproj" xlink:title="INIFileParser">
<polygon style="fill:none;stroke:black;" points="652,156 548,156 548,192 652,192 652,156"/>
<text text-anchor="middle" x="600" y="179">INIFileParser</text>
</a></g>
<g id="edge22" class="edge"><title>0-&gt;7</title>
<path style="fill:none;stroke:black;" d="M755,120C727,130 691,142 662,153"/>
<polygon style="fill:black;stroke:black;" points="663,156 652,156 661,150 663,156"/>
</g>
<g id="edge20" class="edge"><title>0-&gt;5</title>
<path style="fill:none;stroke:black;" d="M896,119C899,119 902,120 905,120 1118,148 1174,126 1387,156 1399,158 1412,160 1424,163"/>
<polygon style="fill:black;stroke:black;" points="1425,160 1434,165 1424,166 1425,160"/>
</g>
<g id="edge24" class="edge"><title>0-&gt;9</title>
<path style="fill:none;stroke:black;" d="M872,120C908,130 953,143 991,153"/>
<polygon style="fill:black;stroke:black;" points="992,150 1001,156 990,156 992,150"/>
</g>
<g id="node23" class="node"><title>1</title>
<ellipse cx="748" cy="174" rx="40" ry="18" style="fill:none;stroke:black;"/>
<text text-anchor="middle" x="748" y="179">Ionic.Zip</text>
</g>
<g id="edge16" class="edge"><title>0-&gt;1</title>
<path style="fill:none;stroke:black;" d="M792,120C785,129 776,139 769,149"/>
<polygon style="fill:black;stroke:black;" points="771,152 762,157 766,147 771,152"/>
</g>
<g id="edge18" class="edge"><title>0-&gt;2</title>
<path style="fill:none;stroke:black;" d="M718,115C702,117 686,118 671,120 494,140 447,134 266,156"/>
<polygon style="fill:black;stroke:black;" points="266,159 256,157 266,153 266,159"/>
</g>
<g id="node7" class="node"><title>4</title>
<ellipse cx="322" cy="246" rx="155" ry="18" style="fill:none;stroke:black;"/>
<text text-anchor="middle" x="322" y="251">Microsoft.VisualStudio.SourceSafe.Interop</text>
</g>
<g id="node15" class="node"><title>8</title>
<a xlink:href="file://C:\UsersGreywind\Documents\My Workspace\earlgrey\trunk\src\BuildTools\SharedLibs\Earlgrey.EncodingTools\Earlgrey.EncodingTools.csproj" xlink:title="Earlgrey.EncodingTools">
<polygon style="fill:none;stroke:black;" points="768,228 590,228 590,264 768,264 768,228"/>
<text text-anchor="middle" x="679" y="251">Earlgrey.EncodingTools</text>
</a></g>
<g id="edge26" class="edge"><title>7-&gt;8</title>
<path style="fill:none;stroke:black;" d="M620,192C630,201 641,211 651,221"/>
<polygon style="fill:black;stroke:black;" points="654,219 659,228 649,224 654,219"/>
</g>
<g id="node9" class="node"><title>12</title>
<a xlink:href="file://C:\UsersGreywind\Documents\My Workspace\earlgrey\trunk\src\BuildTools\UnityBuild\VCProjectTest\VCProjectTest.csproj" xlink:title="VCProjectTest">
<polygon style="fill:none;stroke:black;" points="1954,156 1840,156 1840,192 1954,192 1954,156"/>
<text text-anchor="middle" x="1897" y="179">VCProjectTest</text>
</a></g>
<g id="edge28" class="edge"><title>12-&gt;6</title>
<path style="fill:none;stroke:black;" d="M1840,190C1837,191 1834,191 1831,192 1722,215 1594,231 1514,239"/>
<polygon style="fill:black;stroke:black;" points="1514,242 1504,240 1514,236 1514,242"/>
</g>
<g id="node16" class="node"><title>11</title>
<a xlink:href="file://C:\UsersGreywind\Documents\My Workspace\earlgrey\trunk\src\BuildTools\UnityBuild\VCProject\VCProject.csproj" xlink:title="VCProject">
<polygon style="fill:none;stroke:black;" points="1940,228 1854,228 1854,264 1940,264 1940,228"/>
<text text-anchor="middle" x="1897" y="251">VCProject</text>
</a></g>
<g id="edge30" class="edge"><title>12-&gt;11</title>
<path style="fill:none;stroke:black;" d="M1897,192C1897,200 1897,209 1897,218"/>
<polygon style="fill:black;stroke:black;" points="1901,218 1897,228 1894,218 1901,218"/>
</g>
<g id="edge32" class="edge"><title>5-&gt;6</title>
<path style="fill:none;stroke:black;" d="M1462,192C1458,200 1454,210 1450,219"/>
<polygon style="fill:black;stroke:black;" points="1453,220 1446,228 1447,217 1453,220"/>
</g>
<g id="edge34" class="edge"><title>9-&gt;6</title>
<path style="fill:none;stroke:black;" d="M1159,192C1225,204 1313,222 1372,233"/>
<polygon style="fill:black;stroke:black;" points="1373,230 1382,235 1372,236 1373,230"/>
</g>
<g id="node12" class="node"><title>22</title>
<a xlink:href="file://C:\UsersGreywind\Documents\My Workspace\earlgrey\trunk\src\BuildTools\UnityBuild\UnityBuild.Tests\UnityBuild.Tests.csproj" xlink:title="UnityBuild.Tests">
<polygon style="fill:none;stroke:black;" points="1042,84 914,84 914,120 1042,120 1042,84"/>
<text text-anchor="middle" x="978" y="107">UnityBuild.Tests</text>
</a></g>
<g id="edge36" class="edge"><title>22-&gt;6</title>
<path style="fill:none;stroke:black;" d="M962,120C946,140 927,172 945,192 1006,261 1252,240 1358,244"/>
<polygon style="fill:black;stroke:black;" points="1358,240 1368,244 1358,247 1358,240"/>
</g>
<g id="edge38" class="edge"><title>22-&gt;5</title>
<path style="fill:none;stroke:black;" d="M1042,109C1123,118 1266,135 1387,156 1399,158 1412,161 1424,164"/>
<polygon style="fill:black;stroke:black;" points="1425,161 1434,166 1424,167 1425,161"/>
</g>
<g id="node20" class="node"><title>21</title>
<a xlink:href="file://C:\UsersGreywind\Documents\My Workspace\earlgrey\trunk\src\BuildTools\UnityBuild\UnityBuild\UnityBuild.csproj" xlink:title="UnityBuild">
<polygon style="fill:none;stroke:black;" points="898,156 806,156 806,192 898,192 898,156"/>
<text text-anchor="middle" x="852" y="179">UnityBuild</text>
</a></g>
<g id="edge40" class="edge"><title>22-&gt;21</title>
<path style="fill:none;stroke:black;" d="M946,120C930,129 910,141 892,151"/>
<polygon style="fill:black;stroke:black;" points="893,154 883,156 890,148 893,154"/>
</g>
<g id="node13" class="node"><title>23</title>
<a xlink:href="file://C:\UsersGreywind\Documents\My Workspace\earlgrey\trunk\src\BuildTools\SharedLibs\Earlgrey.Tests\Earlgrey.Tests.csproj" xlink:title="Earlgrey.Tests">
<polygon style="fill:none;stroke:black;" points="1544,84 1434,84 1434,120 1544,120 1544,84"/>
<text text-anchor="middle" x="1489" y="107">Earlgrey.Tests</text>
</a></g>
<g id="edge42" class="edge"><title>23-&gt;6</title>
<path style="fill:none;stroke:black;" d="M1502,120C1513,139 1526,169 1515,192 1506,210 1497,219 1487,226"/>
<polygon style="fill:black;stroke:black;" points="1488,229 1478,231 1485,223 1488,229"/>
</g>
<g id="edge44" class="edge"><title>23-&gt;5</title>
<path style="fill:none;stroke:black;" d="M1484,120C1482,128 1480,137 1478,146"/>
<polygon style="fill:black;stroke:black;" points="1481,147 1475,156 1475,145 1481,147"/>
</g>
<g id="node17" class="node"><title>13</title>
<a xlink:href="file://C:\UsersGreywind\Documents\My Workspace\earlgrey\trunk\src\BuildTools\UnityBuild\SLNToolsTest\SLNToolsTest.csproj" xlink:title="SLNToolsTest">
<polygon style="fill:none;stroke:black;" points="1710,84 1600,84 1600,120 1710,120 1710,84"/>
<text text-anchor="middle" x="1655" y="107">SLNToolsTest</text>
</a></g>
<g id="edge48" class="edge"><title>13-&gt;6</title>
<path style="fill:none;stroke:black;" d="M1644,120C1632,140 1610,171 1586,192 1555,218 1542,228 1514,237"/>
<polygon style="fill:black;stroke:black;" points="1515,240 1504,240 1513,234 1515,240"/>
</g>
<g id="edge50" class="edge"><title>13-&gt;5</title>
<path style="fill:none;stroke:black;" d="M1608,120C1580,131 1544,145 1515,156"/>
<polygon style="fill:black;stroke:black;" points="1517,159 1506,160 1514,153 1517,159"/>
</g>
<g id="node19" class="node"><title>14</title>
<ellipse cx="1730" cy="174" rx="92" ry="18" style="fill:none;stroke:black;"/>
<text text-anchor="middle" x="1730" y="179">CWDev.SLNTools.Core</text>
</g>
<g id="edge46" class="edge"><title>13-&gt;14</title>
<path style="fill:none;stroke:black;" d="M1674,120C1683,129 1694,139 1704,149"/>
<polygon style="fill:black;stroke:black;" points="1707,147 1712,156 1702,152 1707,147"/>
</g>
<g id="node18" class="node"><title>17</title>
<a xlink:href="file://C:\UsersGreywind\Documents\My Workspace\earlgrey\trunk\src\BuildTools\SharedLibs\IniParser\IniFileParserTests\IniFileParserTests.csproj" xlink:title="IniFileParserTests">
<polygon style="fill:none;stroke:black;" points="662,84 528,84 528,120 662,120 662,84"/>
<text text-anchor="middle" x="595" y="107">IniFileParserTests</text>
</a></g>
<g id="edge52" class="edge"><title>17-&gt;18</title>
<path style="fill:none;stroke:black;" d="M567,120C552,130 533,142 517,153"/>
<polygon style="fill:black;stroke:black;" points="519,156 509,159 515,150 519,156"/>
</g>
<g id="edge54" class="edge"><title>17-&gt;6</title>
<path style="fill:none;stroke:black;" d="M618,120C631,130 647,144 661,156 679,172 679,182 699,192 849,264 903,232 1068,244 1082,245 1253,246 1358,246"/>
<polygon style="fill:black;stroke:black;" points="1358,242 1368,246 1358,249 1358,242"/>
</g>
<g id="edge56" class="edge"><title>17-&gt;7</title>
<path style="fill:none;stroke:black;" d="M596,120C597,128 597,137 598,146"/>
<polygon style="fill:black;stroke:black;" points="601,146 599,156 595,146 601,146"/>
</g>
<g id="edge58" class="edge"><title>21-&gt;8</title>
<path style="fill:none;stroke:black;" d="M808,192C785,202 756,214 731,224"/>
<polygon style="fill:black;stroke:black;" points="733,227 722,228 730,221 733,227"/>
</g>
<g id="node21" class="node"><title>3</title>
<ellipse cx="77" cy="246" rx="72" ry="18" style="fill:none;stroke:black;"/>
<text text-anchor="middle" x="77" y="251">Ionic.Zip.Reduced</text>
</g>
<g id="node22" class="node"><title>10</title>
<a xlink:href="file://C:\UsersGreywind\Documents\My Workspace\earlgrey\trunk\src\BuildTools\MSBuild\MSBuild.Earlgrey.Tasks.Tests\MSBuild.Earlgrey.Tasks.Tests.csproj" xlink:title="MSBuild.Earlgrey.Tasks.Tests">
<polygon style="fill:none;stroke:black;" points="1045,12 831,12 831,48 1045,48 1045,12"/>
<text text-anchor="middle" x="938" y="35">MSBuild.Earlgrey.Tasks.Tests</text>
</a></g>
<g id="edge62" class="edge"><title>10-&gt;6</title>
<path style="fill:none;stroke:black;" d="M1045,32C1213,35 1520,47 1553,84 1598,135 1565,196 1508,232"/>
<polygon style="fill:black;stroke:black;" points="1509,235 1499,237 1506,229 1509,235"/>
</g>
<g id="edge68" class="edge"><title>10-&gt;0</title>
<path style="fill:none;stroke:black;" d="M905,48C888,57 867,69 849,79"/>
<polygon style="fill:black;stroke:black;" points="850,82 840,84 847,76 850,82"/>
</g>
<g id="edge66" class="edge"><title>10-&gt;5</title>
<path style="fill:none;stroke:black;" d="M1045,35C1185,40 1247,12 1387,84 1394,89 1426,123 1447,148"/>
<polygon style="fill:black;stroke:black;" points="1450,146 1454,156 1445,151 1450,146"/>
</g>
<g id="edge70" class="edge"><title>10-&gt;9</title>
<path style="fill:none;stroke:black;" d="M1002,48C1020,56 1039,68 1051,84 1064,102 1067,127 1067,146"/>
<polygon style="fill:black;stroke:black;" points="1071,146 1067,156 1064,146 1071,146"/>
</g>
<g id="edge60" class="edge"><title>10-&gt;1</title>
<path style="fill:none;stroke:black;" d="M831,36C783,36 747,35 709,84 694,104 709,131 724,150"/>
<polygon style="fill:black;stroke:black;" points="727,148 731,158 722,153 727,148"/>
</g>
<g id="edge64" class="edge"><title>10-&gt;2</title>
<path style="fill:none;stroke:black;" d="M831,32C691,40 319,7 202,84 181,99 169,126 162,146"/>
<polygon style="fill:black;stroke:black;" points="165,147 159,156 159,145 165,147"/>
</g>
<g id="edge74" class="edge"><title>2-&gt;4</title>
<path style="fill:none;stroke:black;" d="M197,192C220,202 248,214 273,225"/>
<polygon style="fill:black;stroke:black;" points="274,222 282,229 271,228 274,222"/>
</g>
<g id="edge72" class="edge"><title>2-&gt;3</title>
<path style="fill:none;stroke:black;" d="M135,192C125,201 114,211 104,221"/>
<polygon style="fill:black;stroke:black;" points="106,224 96,228 101,219 106,224"/>
</g>
</g>
</svg>
